<?xml version="1.0" encoding="utf-8"?>
<!-- Generator: Adobe Illustrator 16.0.0, SVG Export Plug-In . SVG Version: 6.00 Build 0)  -->
<!DOCTYPE svg PUBLIC "-//W3C//DTD SVG 1.1//EN" "http://www.w3.org/Graphics/SVG/1.1/DTD/svg11.dtd">
<svg version="1.1" id="Calque_1" xmlns="http://www.w3.org/2000/svg" xmlns:xlink="http://www.w3.org/1999/xlink" x="0px" y="0px"
	 width="200px" height="241px" viewBox="0 0 200 241" enable-background="new 0 0 200 241" xml:space="preserve">
<path fill="#FE5F55" d="M156.016,38.806H43.985c-6.782,0-12.33,5.549-12.33,12.33v112.03c0,6.781,5.548,12.33,12.33,12.33h38.022
	L100,202.193l17.992-26.697h38.023c6.781,0,12.33-5.549,12.33-12.33V51.136C168.346,44.354,162.797,38.806,156.016,38.806z
	 M100,152.588c-4.992,0-9.039-4.047-9.039-9.038c0-4.992,4.047-9.038,9.039-9.038c4.993,0,9.04,4.046,9.04,9.038
	C109.039,148.541,104.992,152.588,100,152.588z M109.039,118.418c0,4.971-4.068,9.039-9.04,9.039s-9.039-4.068-9.039-9.039V72.721
	c0-4.971,4.067-9.039,9.039-9.039s9.04,4.068,9.04,9.039V118.418z"/>
</svg>
